<svg xmlns="http://www.w3.org/2000/svg" width="820" height="620" viewBox="0 0 820 620">
  <rect width="820" height="620" rx="16" fill="#151515"/>
  <rect x="98" y="58" width="624" height="504" rx="14" fill="#ffffff" stroke="#dfe3ea"/>
  <text x="138" y="112" font-family="-apple-system, BlinkMacSystemFont, Segoe UI, sans-serif" font-size="24" font-weight="700" fill="#1f2937">New Connection</text>
  <text x="138" y="164" font-family="-apple-system, BlinkMacSystemFont, Segoe UI, sans-serif" font-size="16" fill="#303746">Name *</text>
  <rect x="138" y="178" width="544" height="42" rx="8" fill="#ffffff" stroke="#1677ff" stroke-width="2"/>
  <text x="156" y="205" font-family="SF Mono, Menlo, Consolas, monospace" font-size="17" fill="#1f2937">Local Redis</text>
  <text x="138" y="258" font-family="-apple-system, BlinkMacSystemFont, Segoe UI, sans-serif" font-size="16" fill="#303746">Connection Type</text>
  <rect x="138" y="272" width="544" height="42" rx="8" fill="#ffffff" stroke="#dfe3ea"/>
  <text x="156" y="299" font-family="-apple-system, BlinkMacSystemFont, Segoe UI, sans-serif" font-size="17" fill="#1f2937">Standalone</text>
  <text x="138" y="352" font-family="-apple-system, BlinkMacSystemFont, Segoe UI, sans-serif" font-size="16" fill="#303746">Host *</text>
  <text x="560" y="352" font-family="-apple-system, BlinkMacSystemFont, Segoe UI, sans-serif" font-size="16" fill="#303746">Port *</text>
  <rect x="138" y="366" width="396" height="42" rx="8" fill="#ffffff" stroke="#dfe3ea"/>
  <rect x="560" y="366" width="122" height="42" rx="8" fill="#ffffff" stroke="#dfe3ea"/>
  <text x="156" y="393" font-family="SF Mono, Menlo, Consolas, monospace" font-size="17" fill="#1f2937">localhost</text>
  <text x="578" y="393" font-family="SF Mono, Menlo, Consolas, monospace" font-size="17" fill="#1f2937">6379</text>
  <text x="138" y="446" font-family="-apple-system, BlinkMacSystemFont, Segoe UI, sans-serif" font-size="16" fill="#303746">Database</text>
  <rect x="138" y="460" width="458" height="42" rx="8" fill="#ffffff" stroke="#dfe3ea"/>
  <text x="156" y="487" font-family="SF Mono, Menlo, Consolas, monospace" font-size="17" fill="#1f2937">0</text>
  <rect x="606" y="470" width="18" height="18" rx="4" fill="#ffffff" stroke="#c7ccd6"/>
  <text x="632" y="486" font-family="-apple-system, BlinkMacSystemFont, Segoe UI, sans-serif" font-size="16" fill="#303746">TLS</text>
  <rect x="420" y="520" width="156" height="42" rx="8" fill="#ffffff" stroke="#dfe3ea"/>
  <text x="452" y="547" font-family="-apple-system, BlinkMacSystemFont, Segoe UI, sans-serif" font-size="16" font-weight="700" fill="#303746">Test Connection</text>
  <rect x="594" y="520" width="88" height="42" rx="8" fill="#1677ff"/>
  <text x="624" y="547" font-family="-apple-system, BlinkMacSystemFont, Segoe UI, sans-serif" font-size="16" font-weight="700" fill="#ffffff">Save</text>
</svg>
