<svg xmlns="http://www.w3.org/2000/svg" width="980" height="560" viewBox="0 0 980 560">
  <rect width="980" height="560" rx="16" fill="#f6f7fb"/>
  <rect x="24" y="24" width="932" height="512" rx="12" fill="#ffffff" stroke="#dfe3ea"/>
  <text x="48" y="68" font-family="SF Mono, Menlo, Consolas, monospace" font-size="20" font-weight="700" fill="#111827">app:user:1001:profile</text>
  <rect x="48" y="92" width="70" height="28" rx="6" fill="#dff7ea"/>
  <text x="60" y="112" font-family="SF Mono, Menlo, Consolas, monospace" font-size="16" fill="#16a34a">HASH</text>
  <text x="138" y="112" font-family="-apple-system, BlinkMacSystemFont, Segoe UI, sans-serif" font-size="16" fill="#667085">TTL 3600s</text>
  <text x="238" y="112" font-family="-apple-system, BlinkMacSystemFont, Segoe UI, sans-serif" font-size="16" fill="#667085">Memory 2.0 KB</text>
  <rect x="806" y="88" width="118" height="38" rx="8" fill="#1677ff"/>
  <text x="834" y="113" font-family="-apple-system, BlinkMacSystemFont, Segoe UI, sans-serif" font-size="16" font-weight="700" fill="#ffffff">+ Add Field</text>
  <text x="48" y="164" font-family="-apple-system, BlinkMacSystemFont, Segoe UI, sans-serif" font-size="17" fill="#303746">Fields 5</text>
  <rect x="48" y="188" width="876" height="52" rx="8" fill="#f3f5f8"/>
  <text x="72" y="221" font-family="SF Mono, Menlo, Consolas, monospace" font-size="16" font-weight="700" fill="#667085">FIELD</text>
  <text x="400" y="221" font-family="SF Mono, Menlo, Consolas, monospace" font-size="16" font-weight="700" fill="#667085">VALUE</text>
  <g font-family="SF Mono, Menlo, Consolas, monospace" font-size="17" fill="#1f2937">
    <text x="72" y="277">name</text>
    <rect x="390" y="254" width="112" height="34" rx="7" fill="#f3f4f6" stroke="#e5e7eb"/>
    <text x="408" y="277">Demo User</text>
    <line x1="48" y1="308" x2="924" y2="308" stroke="#edf0f4"/>
    <text x="72" y="337">email</text>
    <rect x="390" y="314" width="214" height="34" rx="7" fill="#f3f4f6" stroke="#e5e7eb"/>
    <text x="408" y="337">demo@example.local</text>
    <line x1="48" y1="368" x2="924" y2="368" stroke="#edf0f4"/>
    <text x="72" y="397">plan</text>
    <rect x="390" y="374" width="64" height="34" rx="7" fill="#f3f4f6" stroke="#e5e7eb"/>
    <text x="408" y="397">pro</text>
    <line x1="48" y1="428" x2="924" y2="428" stroke="#edf0f4"/>
    <text x="72" y="457">last_seen</text>
    <rect x="390" y="434" width="248" height="34" rx="7" fill="#f3f4f6" stroke="#e5e7eb"/>
    <text x="408" y="457">2026-07-09T09:30:00Z</text>
    <line x1="48" y1="488" x2="924" y2="488" stroke="#edf0f4"/>
    <text x="72" y="517">region</text>
    <rect x="390" y="494" width="84" height="34" rx="7" fill="#f3f4f6" stroke="#e5e7eb"/>
    <text x="408" y="517">local</text>
  </g>
</svg>
